<?xml version="1.0" encoding="UTF-8"?>
<svg xmlns="http://www.w3.org/2000/svg" xmlns:xlink="http://www.w3.org/1999/xlink" width="32pt" height="32pt" viewBox="0 0 32 32" version="1.1">
<g id="surface1">
<path style=" stroke:none;fill-rule:nonzero;fill:rgb(100%,100%,100%);fill-opacity:1;" d="M 29.824219 27.644531 C 29.410156 27.644531 29.023438 27.761719 28.695312 27.960938 L 19.886719 19.152344 C 19.871094 19.136719 19.851562 19.121094 19.835938 19.109375 C 20.527344 18.261719 20.941406 17.175781 20.941406 16 C 20.941406 14.824219 20.527344 13.742188 19.839844 12.894531 L 25.84375 6.886719 C 26.488281 7.378906 27.292969 7.671875 28.164062 7.671875 C 30.277344 7.671875 32 5.949219 32 3.835938 C 32 1.722656 30.277344 0 28.164062 0 C 26.050781 0 24.328125 1.722656 24.328125 3.835938 C 24.328125 4.707031 24.621094 5.511719 25.113281 6.15625 L 19.105469 12.160156 C 18.257812 11.472656 17.175781 11.058594 16 11.058594 C 14.824219 11.058594 13.742188 11.472656 12.894531 12.160156 L 10.121094 9.386719 C 10.320312 9.058594 10.4375 8.671875 10.4375 8.257812 C 10.4375 7.058594 9.460938 6.082031 8.257812 6.082031 C 7.058594 6.082031 6.082031 7.058594 6.082031 8.257812 C 6.082031 9.460938 7.058594 10.4375 8.257812 10.4375 C 8.671875 10.4375 9.058594 10.320312 9.386719 10.121094 L 12.160156 12.894531 C 11.472656 13.742188 11.058594 14.824219 11.058594 16 C 11.058594 16.667969 11.191406 17.304688 11.433594 17.882812 L 4.839844 21.457031 C 4.335938 20.847656 3.578125 20.457031 2.730469 20.457031 C 1.226562 20.457031 0 21.683594 0 23.1875 C 0 24.691406 1.226562 25.917969 2.730469 25.917969 C 4.234375 25.917969 5.460938 24.691406 5.460938 23.1875 C 5.460938 22.902344 5.414062 22.625 5.332031 22.367188 L 11.929688 18.796875 C 12.820312 20.089844 14.3125 20.941406 16 20.941406 C 16.1875 20.941406 16.375 20.929688 16.558594 20.910156 L 17.246094 24 C 16.53125 24.359375 16.035156 25.097656 16.035156 25.953125 C 16.035156 27.152344 17.011719 28.128906 18.210938 28.128906 C 19.414062 28.128906 20.390625 27.152344 20.390625 25.953125 C 20.390625 24.769531 19.4375 23.800781 18.257812 23.777344 L 17.570312 20.683594 C 18.136719 20.492188 18.65625 20.203125 19.109375 19.835938 C 19.121094 19.851562 19.136719 19.871094 19.152344 19.886719 L 27.960938 28.695312 C 27.761719 29.023438 27.644531 29.410156 27.644531 29.824219 C 27.644531 31.023438 28.621094 32 29.824219 32 C 31.023438 32 32 31.023438 32 29.824219 C 32 28.621094 31.023438 27.644531 29.824219 27.644531 Z M 2.730469 24.882812 C 1.796875 24.882812 1.035156 24.121094 1.035156 23.1875 C 1.035156 22.253906 1.796875 21.496094 2.730469 21.496094 C 3.664062 21.496094 4.421875 22.253906 4.421875 23.1875 C 4.421875 24.121094 3.664062 24.882812 2.730469 24.882812 Z M 19.351562 25.953125 C 19.351562 26.582031 18.839844 27.09375 18.210938 27.09375 C 17.582031 27.09375 17.070312 26.582031 17.070312 25.953125 C 17.070312 25.324219 17.582031 24.8125 18.210938 24.8125 C 18.839844 24.8125 19.351562 25.324219 19.351562 25.953125 Z M 28.164062 1.035156 C 29.707031 1.035156 30.964844 2.292969 30.964844 3.835938 C 30.964844 5.378906 29.707031 6.636719 28.164062 6.636719 C 26.621094 6.636719 25.363281 5.378906 25.363281 3.835938 C 25.363281 2.292969 26.621094 1.035156 28.164062 1.035156 Z M 7.117188 8.257812 C 7.117188 7.628906 7.628906 7.117188 8.257812 7.117188 C 8.886719 7.117188 9.398438 7.628906 9.398438 8.257812 C 9.398438 8.886719 8.886719 9.398438 8.257812 9.398438 C 7.628906 9.398438 7.117188 8.886719 7.117188 8.257812 Z M 16 19.90625 C 13.847656 19.90625 12.09375 18.152344 12.09375 16 C 12.09375 13.847656 13.847656 12.09375 16 12.09375 C 18.152344 12.09375 19.90625 13.847656 19.90625 16 C 19.90625 18.152344 18.152344 19.90625 16 19.90625 Z M 29.824219 30.964844 C 29.195312 30.964844 28.683594 30.453125 28.683594 29.824219 C 28.683594 29.195312 29.195312 28.683594 29.824219 28.683594 C 30.453125 28.683594 30.964844 29.195312 30.964844 29.824219 C 30.964844 30.453125 30.453125 30.964844 29.824219 30.964844 Z M 29.824219 30.964844 "/>
<path style=" stroke:none;fill-rule:nonzero;fill:rgb(100%,100%,100%);fill-opacity:1;" d="M 16 13.269531 C 15.714844 13.269531 15.480469 13.503906 15.480469 13.789062 C 15.480469 14.074219 15.714844 14.308594 16 14.308594 C 16.933594 14.308594 17.691406 15.066406 17.691406 16 C 17.691406 16.285156 17.925781 16.519531 18.210938 16.519531 C 18.496094 16.519531 18.730469 16.285156 18.730469 16 C 18.730469 14.496094 17.503906 13.269531 16 13.269531 Z M 16 13.269531 "/>
<path style=" stroke:none;fill-rule:nonzero;fill:rgb(100%,100%,100%);fill-opacity:1;" d="M 28.164062 3.25 C 28.488281 3.25 28.75 3.511719 28.75 3.835938 C 28.75 4.121094 28.984375 4.355469 29.269531 4.355469 C 29.554688 4.355469 29.789062 4.121094 29.789062 3.835938 C 29.789062 2.941406 29.058594 2.210938 28.164062 2.210938 C 27.878906 2.210938 27.644531 2.445312 27.644531 2.730469 C 27.644531 3.015625 27.878906 3.25 28.164062 3.25 Z M 28.164062 3.25 "/>
</g>
</svg>
